<svg width="56" height="56" viewBox="0 0 56 56" fill="none" xmlns="http://www.w3.org/2000/svg">
<path d="M43.75 14V36.75C43.75 37.2141 43.5656 37.6593 43.2374 37.9874C42.9092 38.3156 42.4641 38.5 42 38.5C41.5359 38.5 41.0907 38.3156 40.7626 37.9874C40.4344 37.6593 40.25 37.2141 40.25 36.75V18.2241L15.2381 43.2381C14.9098 43.5665 14.4644 43.751 14 43.751C13.5356 43.751 13.0902 43.5665 12.7619 43.2381C12.4335 42.9098 12.249 42.4644 12.249 42C12.249 41.5356 12.4335 41.0902 12.7619 40.7619L37.7759 15.75H19.25C18.7859 15.75 18.3407 15.5656 18.0126 15.2374C17.6844 14.9092 17.5 14.4641 17.5 14C17.5 13.5359 17.6844 13.0908 18.0126 12.7626C18.3407 12.4344 18.7859 12.25 19.25 12.25H42C42.4641 12.25 42.9092 12.4344 43.2374 12.7626C43.5656 13.0908 43.75 13.5359 43.75 14Z" fill="#E2E2E2"/>
</svg>
