<svg width="134" height="40" viewBox="0 0 134 40" fill="none" xmlns="http://www.w3.org/2000/svg">
<path d="M63.744 16.568H60.224C59.424 12.632 57.024 8.92 52.768 8.92C48.192 8.92 44.864 12.92 44.864 19.896C44.864 26.424 47.936 30.904 52.768 30.904C56.768 30.904 59.392 27.608 60.224 23.224H63.744C62.624 27.448 58.752 31.32 52.768 31.32C46.144 31.32 41.184 26.584 41.184 19.896C41.184 13.24 46.144 8.504 52.768 8.504C58.144 8.504 62.4 11.736 63.744 16.568ZM70.705 31.32C67.569 31.32 65.425 29.24 65.425 26.488C65.425 23.544 67.697 21.496 70.833 21.496H75.249V18.264C75.249 15.576 74.097 14.424 72.625 14.424C71.249 14.424 70.001 15.608 70.001 18.392C70.001 18.744 70.033 19.16 70.033 19.48H66.513C66.513 16.28 69.169 14.008 72.625 14.008C76.081 14.008 78.705 16.28 78.705 19.768V31H75.249V28.536C74.513 30.264 72.913 31.32 70.705 31.32ZM72.081 30.264C73.905 30.264 75.249 28.6 75.249 26.296V21.912H72.593C70.321 21.912 68.945 23.736 68.945 26.296C68.945 28.6 70.129 30.264 72.081 30.264ZM82.0725 14.328H85.5285V16.696C86.1685 15.032 87.5765 14.008 89.4325 14.008C91.9925 14.008 93.7845 15.896 93.7845 18.648H90.2645C90.2645 16.632 89.2405 15.224 87.8965 15.224C86.5525 15.224 85.5285 16.6 85.5285 18.648V31H82.0725V14.328ZM99.3715 31H95.9155V5.976H99.3715V31ZM111.045 31.32C106.021 31.32 102.213 27.736 102.213 22.648C102.213 17.592 106.021 14.008 111.045 14.008C116.069 14.008 119.877 17.592 119.877 22.648C119.877 27.736 116.069 31.32 111.045 31.32ZM111.045 30.904C114.085 30.904 116.325 27.928 116.325 22.648C116.325 17.784 114.245 14.424 111.045 14.424C107.973 14.424 105.765 17.4 105.765 22.648C105.765 27.544 107.813 30.904 111.045 30.904ZM121.868 26.584H125.356C125.324 26.904 125.324 27.352 125.324 27.736C125.324 29.528 126.028 30.904 127.596 30.904C128.652 30.904 129.74 30.168 129.74 28.088C129.74 25.624 127.756 24.696 125.932 23.64C124.172 22.648 122.092 21.24 122.124 18.552C122.124 15.704 124.076 14.008 127.276 14.008C130.252 14.008 132.524 16.056 132.492 18.584H129.036C129.068 18.264 129.1 17.912 129.1 17.496C129.1 15.864 128.684 14.424 127.116 14.424C125.836 14.424 125.26 15.576 125.228 17.144C125.228 19.48 127.02 20.376 128.812 21.336C130.924 22.424 132.876 23.832 132.844 26.584C132.844 29.496 130.764 31.32 127.372 31.32C124.268 31.32 121.836 29.208 121.868 26.584Z" fill="#E2E2E2"/>
<g clip-path="url(#clip0_142_460)">
<path d="M14 34C13.0764 34 12.2257 33.7691 11.4479 33.3073C10.6944 32.8698 10.0868 32.2744 9.625 31.5209C9.1875 30.743 8.96875 29.8924 8.96875 28.9687C8.96875 27.8021 9.23611 26.8299 9.77084 26.0521C10.3056 25.2744 11.1319 24.3628 12.25 23.3177C13.0764 22.5642 13.4896 21.8472 13.4896 21.1666V20.5104H12.8333C12.0799 20.5104 11.0469 21.2639 9.73437 22.7709C8.44619 24.2778 6.87847 25.0312 5.03125 25.0312C4.10764 25.0312 3.25695 24.8125 2.47916 24.375C1.7257 23.9131 1.11806 23.3055 0.65625 22.5521C0.21875 21.7744 0 20.9236 0 20C0 19.0764 0.21875 18.2378 0.65625 17.4844C1.11806 16.7066 1.7257 16.099 2.47916 15.6615C3.25695 15.1997 4.10764 14.9688 5.03125 14.9688C6.85416 14.9688 8.40972 15.7101 9.69791 17.1927C10.9861 18.6753 12.0312 19.4167 12.8333 19.4167H13.4896V18.8333C13.4896 18.1528 13.0764 17.4358 12.25 16.6823L11.4115 15.9167C10.8038 15.3576 10.2448 14.6892 9.73437 13.9115C9.22396 13.1094 8.96875 12.1493 8.96875 11.0312C8.96875 10.1076 9.1875 9.2691 9.625 8.51563C10.0868 7.73785 10.6944 7.13021 11.4479 6.69271C12.2257 6.2309 13.0764 6 14 6C14.9236 6 15.7622 6.2309 16.5157 6.69271C17.2934 7.15451 17.9011 7.76215 18.3386 8.51563C18.8003 9.2691 19.0312 10.1076 19.0312 11.0312C19.0312 12.8542 18.2899 14.4097 16.8073 15.6979C15.3247 16.9861 14.5834 18.0312 14.5834 18.8333V19.4167H15.1666C15.993 19.4167 17.0381 18.6753 18.3021 17.1927C19.5416 15.7101 21.0972 14.9688 22.9688 14.9688C23.8924 14.9688 24.7309 15.1997 25.4843 15.6615C26.2622 16.099 26.8698 16.6944 27.3073 17.4479C27.7691 18.2014 28 19.0521 28 20C28 20.9236 27.7691 21.7744 27.3073 22.5521C26.8698 23.3055 26.2622 23.9131 25.4843 24.375C24.7309 24.8125 23.8924 25.0312 22.9688 25.0312C21.8264 25.0312 20.8421 24.7517 20.0157 24.1927C19.2136 23.6337 18.3142 22.8195 17.3177 21.75C16.5642 20.9236 15.8472 20.5104 15.1666 20.5104H14.5834V21.1666C14.5834 22.066 15.3247 23.1111 16.8073 24.3021C18.2899 25.493 19.0312 27.0486 19.0312 28.9687C19.0312 29.8924 18.8003 30.743 18.3386 31.5209C17.9011 32.2744 17.3055 32.8698 16.5521 33.3073C15.7986 33.7691 14.9479 34 14 34Z" fill="#E2E2E2"/>
</g>
<defs>
<clipPath id="clip0_142_460">
<rect width="28" height="28" fill="white" transform="translate(0 6)"/>
</clipPath>
</defs>
</svg>
